<svg width="22px" height="24px" viewBox="0 0 22 24" version="1.1" xmlns="http://www.w3.org/2000/svg" xmlns:xlink="http://www.w3.org/1999/xlink">
    <!-- Generator: Sketch 47.1 (45422) - http://www.bohemiancoding.com/sketch -->
    <desc>Created with Sketch.</desc>
    <defs></defs>
    <g id="Page-1" stroke="none" stroke-width="1" fill="none" fill-rule="evenodd">
        <g id="google_play" fill-rule="nonzero" fill="#000000">
            <path d="M0.22,0 C0.19,0.093 0.16,0.185 0.16,0.308 L0.16,23.537 C0.16,23.754 0.221,23.877 0.344,24 L11.759,11.907 L0.22,0 Z M12.529,12.708 L15.48,15.753 L11.267,18.153 C11.267,18.153 5.912,21.197 2.959,22.892 L12.529,12.708 Z M13.33,11.877 L16.496,15.169 C16.992,14.893 20.867,12.677 21.42,12.369 C22.004,12.031 21.945,11.569 21.449,11.323 C20.99,11.068 17.115,8.848 16.529,8.488 L13.326,11.88 L13.33,11.877 L13.33,11.877 Z M12.527,11.077 L15.511,7.908 L11.252,5.477 C11.252,5.477 4.309,1.505 1.999,0.179 L12.529,11.077 L12.527,11.077 Z" id="Shape"></path>
        </g>
    </g>
</svg>
